<svg version="1.1" viewBox="0 0 580 120" xmlns="http://www.w3.org/2000/svg">
  <g stroke-width=".4">
    <path d="m298.53 75.957h-9.764l-4.9492-7.3512 4.8668-7.2752z" fill="#ff8d4e"/>
    <path d="m298.49 44.083h-9.764l-4.8352 6.568 4.9052 6.712z" fill="#92929a"/>
    <path d="m287.34 59.389-11.188-15.257h-9.764l11.149 15.257-11.188 16.618h9.764zm-58.283-3.532 12.987-11.85h3.7896v31.969h-8.4328v-16.41l-8.344 7.63-8.39-7.588v16.368h-8.4308v-31.968h3.79zm22.936-11.851h8.3888v31.969h-8.3892z" fill="#2c233d"/>
    <path d="m304.73 44.006h8.388v31.969h-8.388zm13.57 4e-4h25.133v8.344h-8.4628v23.625h-8.3776v-23.625h-8.292z" fill="#ff8d4e"/>
    <path d="m198.88 67.527-1.5864 8.954h-3.264q-0.476 0-0.9064-0.2268-0.408-0.2268-0.7028-0.612-0.272-0.3852-0.3848-0.884-0.1136-0.4988 0-1.0652l1.088-6.1656h-3.74l-1.1116 6.506q-0.1128 0.6572-0.4304 1.1332-0.2944 0.4532-0.7252 0.748-0.408 0.2948-0.9288 0.4308-0.4988 0.136-1.0428 0.136h-3.128l1.5872-8.9544h-1.996q-1.0648 0-1.5184-0.612-0.4532-0.634-0.204-2.13l0.3628-2.176h4.012l0.9516-5.35h-4.51l0.544-2.856q0.204-1.042 0.884-1.5408 0.7028-0.4988 2.1988-0.4988h1.5416l1.1776-6.6404q0.204-1.0652 1.02-1.6548 0.8392-0.612 1.9272-0.612h3.2184l-1.5864 8.908h3.7624l1.5864-8.9092h3.128q0.544 0 0.9752 0.182 0.4532 0.1812 0.748 0.4984 0.3172 0.2952 0.4532 0.726 0.136 0.408 0.0456 0.9064l-1.1784 6.596h4.3964l-0.544 2.856q-0.204 1.066-0.9064 1.564-0.68 0.476-2.176 0.476h-1.428l-0.952 5.35h2.4708q1.0656 0 1.5192 0.6344 0.4532 0.612 0.204 2.108l-0.3628 2.176zm-8.862-4.9176h3.7628l0.9512-5.3504h-3.7624z" fill="#ff8a4b" font-family="Lato" font-size="85px" font-weight="900" letter-spacing="0" word-spacing="0"/>
  </g>
  <g transform="matrix(.4348 0 0 .4236 150.37 36.607)" fill="#2c233d" font-family="sans-serif" font-size="80.506px" font-weight="900" letter-spacing="0" stroke-width=".839" word-spacing="0">
    <g transform="scale(.98224 1.0181)" fill="#2c233d" aria-label="19">
      <g transform="scale(.97165 1.0292)" fill="#2c233d" aria-label="21">
        <path d="m523.87 90.692h-56.773l33.363-39.508q5.9414-7.0586 5.9414-11.984 0-3.9609-2.4883-6.3984t-6.4492-2.4375q-9.9024 0-9.9024 11.883v0.91406h-17.875v-0.50781q0-12.797 7.3633-19.957 7.3633-7.2109 20.211-7.2109 11.781 0 19.195 5.7891 8.125 6.3477 8.125 17.824 0 9.9531-10.055 21.023l-13.406 14.777h22.75z"/>
        <path d="m547.99 90.185v-56.773h-15.945l8.7344-16.859h25.695v73.633z"/>
      </g>
    </g>
  </g>
</svg>
